<svg width="353" height="246" viewBox="0 0 353 246" fill="none" xmlns="http://www.w3.org/2000/svg">
<path d="M70.3329 246C109.177 246 140.666 243.605 140.666 240.65C140.666 237.695 109.177 235.299 70.3329 235.299C31.4891 235.299 0 237.695 0 240.65C0 243.605 31.4891 246 70.3329 246Z" fill="#E6E6E6"/>
<path d="M53.7612 54.5831C66.0012 49.3685 81.2464 52.6724 96.1349 54.9654C96.2735 52.1886 97.9528 48.809 96.1937 46.8716C94.0565 44.518 94.2532 42.045 95.5393 39.5577C98.828 33.1974 94.1162 26.4297 89.3588 20.8024C88.2865 19.5369 86.9313 18.5425 85.4033 17.9002C83.8753 17.2578 82.2176 16.9855 80.5648 17.1053L71.752 17.7358C69.6075 17.8892 67.561 18.695 65.8862 20.0453C64.2114 21.3956 62.9882 23.226 62.3804 25.2916C60.2761 28.1581 59.1498 31.0168 59.8589 33.8605C56.707 36.018 56.1774 38.6223 57.5938 41.5582C58.7948 43.4067 58.782 45.2061 57.5392 46.9557C55.9069 49.1863 54.6568 51.6735 53.8399 54.3153L53.7612 54.5831Z" fill="#2F2E41"/>
<path d="M344.635 212.663H95.1681C92.9496 212.663 90.822 211.78 89.2533 210.209C87.6846 208.638 86.8033 206.507 86.8033 204.285C177.235 193.758 265.967 193.758 353 204.285C353 206.507 352.119 208.638 350.55 210.209C348.981 211.78 346.854 212.663 344.635 212.663Z" fill="#2F2E41"/>
<path d="M353 204.778L86.8033 204.285L117.655 152.289L117.802 152.043V37.4514C117.802 36.0605 118.075 34.6832 118.607 33.3981C119.138 32.1131 119.917 30.9455 120.899 29.962C121.881 28.9784 123.047 28.1983 124.33 27.6661C125.613 27.1339 126.988 26.86 128.376 26.8601H309.951C311.34 26.86 312.715 27.1339 313.998 27.6661C315.281 28.1983 316.446 28.9784 317.428 29.962C318.41 30.9455 319.189 32.1131 319.72 33.3981C320.252 34.6832 320.525 36.0605 320.525 37.4514V152.832L353 204.778Z" fill="#3F3D56"/>
<path d="M128.135 34.2528C127.222 34.2538 126.346 34.6176 125.701 35.2644C125.055 35.9112 124.692 36.7881 124.691 37.7027V142.186C124.692 143.101 125.055 143.978 125.701 144.624C126.346 145.271 127.222 145.635 128.135 145.636H311.668C312.581 145.635 313.457 145.271 314.102 144.624C314.748 143.978 315.111 143.101 315.112 142.186V37.7027C315.111 36.7881 314.748 35.9112 314.102 35.2644C313.457 34.6177 312.581 34.2539 311.668 34.2528H128.135Z" fill="white"/>
<path d="M128.904 159.436C128.622 159.436 128.346 159.517 128.108 159.67C127.871 159.822 127.681 160.04 127.563 160.296L118.057 180.996C117.953 181.221 117.908 181.469 117.925 181.716C117.942 181.963 118.021 182.203 118.155 182.411C118.288 182.62 118.472 182.792 118.689 182.911C118.907 183.03 119.15 183.092 119.398 183.092H319.309C319.56 183.092 319.808 183.028 320.028 182.905C320.247 182.782 320.432 182.605 320.564 182.391C320.697 182.177 320.772 181.932 320.783 181.68C320.795 181.428 320.741 181.178 320.629 180.952L310.296 160.253C310.174 160.007 309.986 159.8 309.752 159.655C309.519 159.511 309.25 159.435 308.976 159.436H128.904Z" fill="#2F2E41"/>
<path d="M219.164 32.5279C220.386 32.5279 221.378 31.535 221.378 30.3101C221.378 29.0852 220.386 28.0923 219.164 28.0923C217.941 28.0923 216.949 29.0852 216.949 30.3101C216.949 31.535 217.941 32.5279 219.164 32.5279Z" fill="white"/>
<path d="M199.514 187.035C199.189 187.035 198.874 187.143 198.617 187.34C198.359 187.538 198.174 187.815 198.089 188.129L195.704 197C195.645 197.219 195.637 197.449 195.681 197.672C195.725 197.894 195.82 198.104 195.958 198.284C196.096 198.464 196.273 198.61 196.476 198.711C196.679 198.811 196.903 198.863 197.129 198.863H242.478C242.713 198.863 242.945 198.807 243.154 198.699C243.364 198.591 243.544 198.434 243.68 198.242C243.817 198.05 243.906 197.828 243.939 197.595C243.972 197.362 243.95 197.124 243.873 196.901L240.807 188.03C240.706 187.739 240.518 187.488 240.268 187.309C240.018 187.131 239.719 187.035 239.412 187.035H199.514Z" fill="#2F2E41"/>
<path d="M320.525 150.318V152.289H117.654L117.807 152.043V150.318H320.525Z" fill="#2F2E41"/>
<path d="M314.866 68.9984C333.889 68.9984 349.31 53.5526 349.31 34.4992C349.31 15.4458 333.889 0 314.866 0C295.844 0 280.423 15.4458 280.423 34.4992C280.423 53.5526 295.844 68.9984 314.866 68.9984Z" fill="#6C63FF"/>
<path d="M329.136 49.531H300.597C300.075 49.5305 299.575 49.3226 299.206 48.953C298.837 48.5834 298.629 48.0823 298.629 47.5596V30.31C298.63 29.7873 298.837 29.2862 299.206 28.9166C299.575 28.5471 300.075 28.3392 300.597 28.3386H329.136C329.658 28.3392 330.158 28.5471 330.527 28.9166C330.896 29.2862 331.103 29.7873 331.104 30.31V47.5596C331.103 48.0823 330.896 48.5834 330.527 48.953C330.158 49.3226 329.658 49.5305 329.136 49.531ZM300.597 30.31V47.5596H329.137L329.136 30.31L300.597 30.31Z" fill="white"/>
<path d="M323.723 30.3101H306.01V22.4246C306.01 16.713 309.735 12.5676 314.866 12.5676C319.998 12.5676 323.723 16.713 323.723 22.4246L323.723 30.3101ZM307.978 28.3387H321.755V22.4246C321.755 17.7817 318.922 14.539 314.866 14.539C310.81 14.539 307.978 17.7817 307.978 22.4246L307.978 28.3387Z" fill="white"/>
<path d="M314.866 40.4133C315.953 40.4133 316.835 39.5307 316.835 38.442C316.835 37.3532 315.953 36.4706 314.866 36.4706C313.779 36.4706 312.898 37.3532 312.898 38.442C312.898 39.5307 313.779 40.4133 314.866 40.4133Z" fill="white"/>
<path d="M290.822 110.196H148.981C148.285 110.196 147.617 109.918 147.125 109.425C146.632 108.932 146.355 108.263 146.354 107.565V72.3235C146.355 71.6259 146.632 70.9572 147.125 70.464C147.617 69.9708 148.285 69.6933 148.981 69.6925H290.822C291.519 69.6933 292.186 69.9708 292.679 70.464C293.171 70.9572 293.448 71.6259 293.449 72.3235V107.565C293.448 108.263 293.171 108.932 292.679 109.425C292.186 109.918 291.519 110.196 290.822 110.196ZM148.981 70.7449C148.563 70.7454 148.163 70.9118 147.867 71.2078C147.572 71.5037 147.406 71.9049 147.405 72.3235V107.565C147.406 107.984 147.572 108.385 147.867 108.681C148.163 108.977 148.563 109.143 148.981 109.144H290.822C291.24 109.143 291.641 108.977 291.936 108.681C292.231 108.385 292.398 107.984 292.398 107.565V72.3235C292.398 71.9049 292.231 71.5037 291.936 71.2077C291.641 70.9118 291.24 70.7453 290.822 70.7449L148.981 70.7449Z" fill="#E6E6E6"/>
<path d="M171.02 99.3092C176.93 99.3092 181.72 94.511 181.72 88.5921C181.72 82.6732 176.93 77.875 171.02 77.875C165.111 77.875 160.321 82.6732 160.321 88.5921C160.321 94.511 165.111 99.3092 171.02 99.3092Z" fill="#E6E6E6"/>
<path d="M195.732 81.4474C195.497 81.447 195.265 81.4929 195.048 81.5825C194.832 81.6721 194.635 81.8037 194.469 81.9696C194.303 82.1355 194.171 82.3325 194.082 82.5494C193.992 82.7663 193.946 82.9988 193.946 83.2336C193.946 83.4684 193.992 83.7009 194.082 83.9178C194.171 84.1347 194.303 84.3317 194.469 84.4976C194.635 84.6635 194.832 84.795 195.048 84.8846C195.265 84.9742 195.497 85.0201 195.732 85.0198H279.801C280.274 85.0198 280.727 84.8316 281.062 84.4966C281.396 84.1616 281.584 83.7073 281.584 83.2336C281.584 82.7598 281.396 82.3055 281.062 81.9705C280.727 81.6356 280.274 81.4474 279.801 81.4474H195.732Z" fill="#E6E6E6"/>
<path d="M195.732 92.1646C195.259 92.1646 194.805 92.3527 194.471 92.6877C194.136 93.0227 193.948 93.477 193.948 93.9507C193.948 94.4245 194.136 94.8788 194.471 95.2138C194.805 95.5487 195.259 95.7369 195.732 95.7369H231.907C232.38 95.7369 232.833 95.5487 233.168 95.2138C233.502 94.8788 233.69 94.4245 233.69 93.9507C233.69 93.477 233.502 93.0227 233.168 92.6877C232.833 92.3527 232.38 92.1646 231.907 92.1646H195.732Z" fill="#E6E6E6"/>
<path d="M117.306 92.887L91.0851 106.85L90.7532 95.2142C99.3113 93.7832 107.454 91.2917 114.982 87.2355L117.724 80.4493C118.023 79.7099 118.509 79.061 119.134 78.5663C119.759 78.0716 120.501 77.7482 121.288 77.6278C122.076 77.5074 122.881 77.5941 123.625 77.8794C124.368 78.1648 125.025 78.6389 125.531 79.2554C126.27 80.1573 126.64 81.307 126.565 82.4718C126.49 83.6365 125.976 84.7291 125.126 85.5282L117.306 92.887Z" fill="#FFB8B8"/>
<path d="M53.2385 173.502C53.0472 172.8 53.0066 172.064 53.1194 171.345C53.2321 170.625 53.4956 169.938 53.8926 169.328L59.6524 160.474C61.0148 158.379 63.1052 156.867 65.5181 156.229C67.931 155.592 70.4943 155.874 72.7108 157.023C70.2901 161.15 70.6275 164.771 73.5468 167.917C69.015 170.133 64.8265 172.993 61.1112 176.409C60.4329 176.872 59.654 177.166 58.8393 177.266C58.0245 177.367 57.1976 177.271 56.4274 176.987C55.6571 176.702 54.9659 176.238 54.4112 175.632C53.8565 175.026 53.4545 174.296 53.2385 173.502Z" fill="#2F2E41"/>
<path d="M118.5 161.926C117.628 163.381 116.398 164.587 114.927 165.429C113.456 166.27 111.793 166.719 110.099 166.732L71.8347 167.022L70.1752 157.381L87.1023 152.395L72.8304 141.424L88.4298 123.14L116.763 149.59C118.419 151.136 119.495 153.205 119.811 155.45C120.127 157.695 119.664 159.981 118.5 161.926Z" fill="#2F2E41"/>
<path d="M65.8604 227.859H56.899C48.8529 172.617 40.6628 117.22 64.8647 96.5439L93.4084 101.198L89.7575 125.467L73.8261 143.751L65.8604 227.859Z" fill="#2F2E41"/>
<path d="M73.7379 240.373C73.0364 240.565 72.3023 240.606 71.5839 240.493C70.8655 240.38 70.1792 240.116 69.5699 239.718L59.8397 238.408C57.7488 237.044 56.2385 234.95 55.6018 232.533C54.9651 230.117 55.2474 227.549 56.3938 225.329C60.5144 227.753 64.1291 227.415 67.2703 224.491C69.4897 228.98 73.1466 228.706 76.6391 232.488C77.1015 233.167 77.3952 233.947 77.4956 234.763C77.5961 235.579 77.5004 236.407 77.2165 237.179C76.9327 237.95 76.4689 238.643 75.8638 239.198C75.2587 239.754 74.5298 240.157 73.7379 240.373Z" fill="#2F2E41"/>
<path d="M87.1022 59.6427L70.507 55.6534C73.2632 50.0025 73.4902 43.7147 72.1665 37.0365L83.4513 36.7041C83.8049 45.0086 84.8746 52.7671 87.1022 59.6427Z" fill="#FFB8B8"/>
<path d="M91.6632 111.208C79.5825 119.453 71.0466 111.49 64.5328 99.2034C65.4379 91.6852 63.9723 82.6882 61.258 72.9122C60.0508 68.6002 60.5015 63.9917 62.5211 59.9964C64.5406 56.0011 67.9823 52.9093 72.1665 51.3315L86.4384 57.3155C98.5569 67.2095 100.942 77.9267 96.3955 89.2301L91.6632 111.208Z" fill="#6C63FF"/>
<path d="M56.899 67.9538L43.6228 74.9351L67.188 88.8977L70.4669 96.999C70.6858 97.5397 70.7924 98.1194 70.7803 98.7027C70.7682 99.286 70.6376 99.8608 70.3964 100.392C70.1553 100.923 69.8087 101.399 69.3778 101.792C68.9468 102.185 68.4406 102.485 67.8899 102.675C67.2639 102.891 66.5964 102.96 65.9398 102.874C65.2831 102.789 64.6551 102.553 64.1049 102.184C63.5546 101.815 63.0972 101.323 62.7683 100.747C62.4394 100.172 62.248 99.5277 62.2091 98.8656L61.8776 93.2195L31.9265 83.3196C30.9174 82.986 29.9973 82.4268 29.2358 81.6844C28.4744 80.9419 27.8917 80.0356 27.5317 79.0341C27.0071 77.5743 26.9804 75.9815 27.4558 74.5049C27.9312 73.0283 28.882 71.7513 30.1593 70.8736L54.2438 54.3236L56.899 67.9538Z" fill="#FFB8B8"/>
<path d="M70.1751 69.2835C64.6382 66.853 59.6032 69.4933 53.2481 71.6106L52.2523 53.9911C58.5628 50.6223 64.5793 49.714 70.1752 52.3289L70.1751 69.2835Z" fill="#6C63FF"/>
<path d="M76.7986 45.4317C82.6503 45.4317 87.394 40.6802 87.394 34.819C87.394 28.9579 82.6503 24.2064 76.7986 24.2064C70.947 24.2064 66.2032 28.9579 66.2032 34.819C66.2032 40.6802 70.947 45.4317 76.7986 45.4317Z" fill="#FFB8B8"/>
<path d="M89.4741 33.4799C78.9838 34.509 70.9902 32.7906 65.8815 27.8976V23.9572H88.5839L89.4741 33.4799Z" fill="#2F2E41"/>
</svg>
