<svg width="74" height="82" viewBox="0 0 74 82" fill="none" xmlns="http://www.w3.org/2000/svg">
<path fill-rule="evenodd" clip-rule="evenodd" d="M36.716 0.65271C41.7889 1.06321 44.4228 3.29681 47.7753 5.37131C49.0874 6.18321 50.443 6.62611 51.7566 7.43571C55.7998 9.92741 60.0995 12.3142 64.143 14.8085C68.3176 17.3837 70.8108 18.0136 72.843 22.9187C73.5384 24.5973 73.2854 27.2869 73.2854 29.5543C73.2854 33.9284 73.2854 38.3038 73.2854 42.6779C73.2854 46.2165 73.2854 49.7562 73.2854 53.2948C73.2853 55.321 73.4602 57.5557 72.843 59.0456C70.8139 63.9432 68.318 64.5883 64.143 67.1557C59.5156 70.0014 54.6096 72.7199 49.9871 75.5608C49.2499 76.0139 48.5078 76.1426 47.7753 76.593C44.4833 78.6171 41.9326 80.6721 37.1584 81.3116C34.7631 81.6325 32.2963 80.2142 30.9652 79.3947C27.7409 77.4096 24.3836 75.7371 21.233 73.7913C17.4384 71.4477 13.4634 69.4573 9.73136 67.1557C5.55656 64.5811 3.06346 63.9501 1.03146 59.0456C0.283457 57.2403 0.588958 54.2435 0.589058 51.8202C0.589058 47.0038 0.589058 42.1859 0.589058 37.3695C0.589058 34.3715 0.589058 31.3726 0.589058 28.3746C0.589058 26.4318 0.440357 24.3457 1.03146 22.9187C3.35636 17.3054 7.69466 16.1543 12.5331 13.1865C18.8563 9.30801 25.5081 5.68231 31.85 1.83231C32.882 1.48831 33.9145 1.14421 34.9465 0.80011C35.552 0.64991 36.3009 0.92951 36.716 0.65271Z" fill="#EEEEEE"/>
<path fill-rule="evenodd" clip-rule="evenodd" d="M18.7915 55.0258C14.8521 55.3644 15.4591 55.1138 12.5983 53.5512C11.9347 53.1887 10.556 52.8854 10.239 52.2241C10.239 47.3093 10.239 42.3931 10.239 37.4784C11.7124 36.561 13.8463 35.3561 15.5474 34.8242C16.6287 34.9225 17.7102 35.0208 18.7915 35.1191C18.775 32.6186 18.503 29.5419 18.9389 27.3039C20.354 26.5654 21.5082 25.3889 22.7728 24.5022C25.0928 22.8756 27.3836 21.4107 29.7033 19.7836C30.6162 19.1432 32.9016 16.9627 33.8321 16.687C34.5871 16.4632 36.8149 17.8744 37.371 18.1615C40.6256 19.842 43.9161 21.3692 47.1032 23.0276C49.1035 24.0684 51.2048 24.9647 53.1489 25.9768C53.9965 26.418 55.0177 26.5028 55.3608 27.4513C55.8107 28.1589 55.5248 32.0177 55.5082 33.2022C55.5574 33.2022 55.6066 33.2022 55.6557 33.2022C55.6557 33.2513 55.6557 33.3005 55.6557 33.3496C57.7578 33.599 59.9778 34.5838 61.8489 35.2666C62.492 35.5012 63.3531 35.4309 63.6184 36.0038C63.6184 41.9998 63.6184 47.9976 63.6184 53.9935C63.4998 54.1441 63.566 54.034 63.4709 54.2885C62.2663 54.575 61.0191 55.3132 59.9319 55.763C58.0738 56.5319 56.2042 57.1126 54.476 57.8275C49.8965 59.7216 45.3495 60.956 40.7625 62.841C38.6811 63.6963 36.3627 65.1675 33.8321 65.3477C32.6991 64.3253 31.0469 63.9525 29.7033 63.1359C27.6606 61.8944 25.4049 60.6953 23.3626 59.4495C22.3093 58.8069 19.3358 57.8629 18.9389 56.7952C18.7118 56.4543 18.7739 55.6 18.7915 55.0258Z" fill="#5232A1"/>
<path fill-rule="evenodd" clip-rule="evenodd" d="M36.044 21.4056C35.4547 23.1706 35.884 26.2646 35.8965 28.3361C35.9457 28.3361 35.9949 28.3361 36.044 28.3361C36.044 28.3852 36.044 28.4344 36.044 28.4835C37.2214 28.6373 40.3314 30.1175 41.0576 29.8106C41.5319 29.0631 41.2215 24.8699 41.205 23.6174C39.5573 22.8757 37.8795 21.8629 36.044 21.4056Z" fill="#EEEEEE"/>
<path fill-rule="evenodd" clip-rule="evenodd" d="M31.7678 21.9954C30.6866 22.6835 29.605 23.3717 28.5237 24.0598C28.5237 26.0749 28.5237 28.0905 28.5237 30.1055C28.5729 30.1055 28.622 30.1055 28.6712 30.1055C28.6712 30.1547 28.6712 30.2038 28.6712 30.253C29.0612 30.1722 32.133 28.9149 32.2102 28.7784C32.2102 26.5668 32.2102 24.3545 32.2102 22.1429C32.161 22.1429 32.1119 22.1429 32.0627 22.1429C31.9121 22.0243 32.0223 22.0905 31.7678 21.9954Z" fill="#EEEEEE"/>
<path fill-rule="evenodd" clip-rule="evenodd" d="M44.5964 25.2395C44.5964 27.1562 44.5964 29.0736 44.5964 30.9903C44.7439 31.0394 44.8913 31.0886 45.0388 31.1378C45.562 31.5231 47.8282 32.2433 48.2829 32.0225C48.7083 31.3549 48.447 27.8305 48.4303 26.714C47.2536 26.1767 46.0758 25.3766 44.5964 25.2395Z" fill="#EEEEEE"/>
<path fill-rule="evenodd" clip-rule="evenodd" d="M23.6577 32.3174C27.2484 32.2297 26.5787 29.2525 26.4593 25.6818C26.4102 25.6818 26.3611 25.6818 26.3119 25.6818C26.3119 25.6327 26.3119 25.5835 26.3119 25.5344C26.2136 25.5344 26.1153 25.5344 26.017 25.5344C25.4997 26.1755 24.3572 26.7169 23.6577 27.1564C23.6577 28.8766 23.6577 30.5973 23.6577 32.3174Z" fill="#EEEEEE"/>
<path fill-rule="evenodd" clip-rule="evenodd" d="M50.7897 27.8937C50.7897 29.5647 50.7897 31.2362 50.7897 32.9072C50.8389 32.9072 50.888 32.9072 50.9372 32.9072C50.9372 32.9564 50.9372 33.0055 50.9372 33.0547C51.9786 33.1785 52.6644 33.6382 53.7388 33.792C53.7388 32.1701 53.7388 30.5478 53.7388 28.9259C52.6587 28.6603 52.0131 28.0204 50.7897 27.8937Z" fill="#EEEEEE"/>
<path fill-rule="evenodd" clip-rule="evenodd" d="M21.7407 28.1886C21.384 28.6237 20.4007 28.7907 20.1187 29.2208C20.1187 30.7444 20.1187 32.2684 20.1187 33.792C20.3422 33.8709 20.3684 33.8915 20.7085 33.9395C21.0562 33.6301 22.1298 33.4692 22.3306 33.0547C22.3306 31.482 22.3306 29.9088 22.3306 28.3361C22.2814 28.3361 22.2322 28.3361 22.1831 28.3361C22.1831 28.2869 22.1831 28.2378 22.1831 28.1886C22.0357 28.1886 21.8882 28.1886 21.7407 28.1886Z" fill="#EEEEEE"/>
<path fill-rule="evenodd" clip-rule="evenodd" d="M41.205 41.6072C41.205 39.543 41.205 37.4782 41.205 35.414C41.0576 35.3649 40.9101 35.3157 40.7626 35.2666C40.0272 34.7954 37.1042 34.4588 36.044 34.3818C35.4547 36.1468 35.884 39.2408 35.8965 41.3123C35.9949 41.3123 36.0932 41.3123 36.1915 41.3123C36.9006 41.7616 40.0144 41.6218 41.205 41.6072Z" fill="#EEEEEE"/>
<path fill-rule="evenodd" clip-rule="evenodd" d="M31.3254 34.6767C30.6184 35.1538 29.3375 35.0371 28.6712 35.5615C28.205 36.2957 28.5072 40.3774 28.5237 41.6072C28.8002 41.7033 29.1007 41.7476 29.5559 41.7547C30.1873 41.3776 31.4848 41.7032 32.0627 41.3123C32.5533 40.5381 32.2266 36.122 32.2102 34.8242C32.161 34.8242 32.1119 34.8242 32.0627 34.8242C32.0627 34.775 32.0627 34.7259 32.0627 34.6767C31.817 34.6767 31.5712 34.6767 31.3254 34.6767Z" fill="#EEEEEE"/>
<path fill-rule="evenodd" clip-rule="evenodd" d="M44.5964 36.0038C44.5964 37.9206 44.5964 39.8379 44.5964 41.7547C44.6456 41.7547 44.6947 41.7547 44.7439 41.7547C44.7439 41.8038 44.7439 41.853 44.7439 41.9021C45.9234 42.0004 47.1033 42.0987 48.2829 42.197C48.2829 42.1478 48.2829 42.0987 48.2829 42.0495C48.332 42.0495 48.3812 42.0495 48.4303 42.0495C48.4303 40.2311 48.4303 38.4121 48.4303 36.5937C47.1364 36.4513 46.02 36.056 44.5964 36.0038Z" fill="#EEEEEE"/>
<path fill-rule="evenodd" clip-rule="evenodd" d="M25.7221 36.1513C25.2693 36.4738 24.4062 36.6148 23.8051 36.7411C23.3572 38.0757 23.6455 40.4357 23.6577 42.0495C23.9163 42.1425 23.8009 42.078 23.9526 42.197C24.6013 42.0951 25.8679 42.1059 26.3119 41.7547C26.7455 41.0737 26.476 37.4378 26.4593 36.2987C26.4102 36.2987 26.3611 36.2987 26.3119 36.2987C26.3119 36.2496 26.3119 36.2004 26.3119 36.1513C26.1153 36.1513 25.9187 36.1513 25.7221 36.1513Z" fill="#EEEEEE"/>
<path fill-rule="evenodd" clip-rule="evenodd" d="M50.7896 42.197C51.6261 42.2926 52.7004 42.3457 53.7387 42.3444C53.7387 40.7718 53.7387 39.1986 53.7387 37.6259C53.6896 37.6259 53.6404 37.6259 53.5913 37.6259C53.5913 37.5767 53.5913 37.5275 53.5913 37.4784C52.7407 37.4342 51.4235 36.945 50.9371 37.1835C50.5279 37.8244 50.7728 41.1259 50.7896 42.197Z" fill="#EEEEEE"/>
<path fill-rule="evenodd" clip-rule="evenodd" d="M21.8882 37.1835C21.4551 37.4756 20.6703 37.4563 20.2662 37.7733C19.7387 38.597 20.0989 41.1781 20.1187 42.3444C20.217 42.3444 20.3153 42.3444 20.4136 42.3444C20.5496 42.3954 21.5987 42.3564 22.1831 42.3444C22.6053 41.0878 22.3427 38.8618 22.3306 37.3309C22.2814 37.3309 22.2322 37.3309 22.1831 37.3309C22.0325 37.2123 22.1427 37.2786 21.8882 37.1835Z" fill="#EEEEEE"/>
<path fill-rule="evenodd" clip-rule="evenodd" d="M56.5404 38.0682C56.1694 39.1694 56.381 41.1267 56.393 42.4919C56.9252 42.6747 57.8503 42.6498 58.6048 42.6394C58.9504 41.6156 58.7642 39.7933 58.7523 38.5106C58.654 38.5106 58.5557 38.5106 58.4574 38.5106C58.0376 38.2282 57.0881 38.1731 56.5404 38.0682Z" fill="#EEEEEE"/>
<path fill-rule="evenodd" clip-rule="evenodd" d="M61.7014 42.7868C61.7014 41.5582 61.7014 40.3291 61.7014 39.1004C61.4472 39.0121 61.2366 38.9692 60.8167 38.953C60.6077 38.8113 60.334 38.809 59.9319 38.8055C59.6119 39.7521 59.7727 41.4391 59.7845 42.6394C60.2456 42.7984 61.0252 42.7963 61.7014 42.7868Z" fill="#EEEEEE"/>
<path fill-rule="evenodd" clip-rule="evenodd" d="M13.4831 42.9343C14.0237 42.9343 14.5645 42.9343 15.1052 42.9343C15.1052 42.8851 15.1052 42.836 15.1052 42.7868C15.1543 42.7868 15.2035 42.7868 15.2526 42.7868C15.2526 41.5582 15.2526 40.3291 15.2526 39.1004C14.55 39.1164 14.1927 39.2665 13.6306 39.3953C13.3359 40.2651 13.4715 41.8161 13.4831 42.9343Z" fill="#EEEEEE"/>
<path fill-rule="evenodd" clip-rule="evenodd" d="M12.5984 39.8377C11.9841 39.8271 11.5915 39.8714 11.2713 40.1326C10.9192 40.6732 11.1044 42.2614 11.1238 43.0817C11.3473 43.1607 11.3735 43.1813 11.7137 43.2292C11.8622 43.127 12.3033 43.0394 12.4509 42.9343C12.5001 42.9343 12.5493 42.9343 12.5984 42.9343C12.5984 41.9022 12.5984 40.8698 12.5984 39.8377Z" fill="#EEEEEE"/>
<path fill-rule="evenodd" clip-rule="evenodd" d="M11.1238 45.2936C11.1238 46.2765 11.1238 47.2598 11.1238 48.2427C11.2713 48.2919 11.4188 48.341 11.5662 48.3902C11.85 48.6037 12.2341 48.6529 12.4509 48.5377C12.8188 47.9715 12.6178 46.2926 12.5984 45.441C12.5493 45.441 12.5001 45.441 12.4509 45.441C12.4509 45.3919 12.4509 45.3427 12.4509 45.2936C12.0086 45.2936 11.5661 45.2936 11.1238 45.2936Z" fill="#EEEEEE"/>
<path fill-rule="evenodd" clip-rule="evenodd" d="M15.2526 49.4224C15.2526 48.1445 15.2526 46.8663 15.2526 45.5885C14.712 45.5393 14.1712 45.4902 13.6306 45.441C13.3359 46.3108 13.4715 47.8618 13.4831 48.98C13.5814 48.98 13.6797 48.98 13.7781 48.98C14.1201 49.2508 14.7109 49.3613 15.2526 49.4224Z" fill="#EEEEEE"/>
<path fill-rule="evenodd" clip-rule="evenodd" d="M59.7845 49.7173C60.5752 49.714 61.07 49.5618 61.7014 49.4224C61.7014 48.1937 61.7014 46.9646 61.7014 45.736C61.425 45.6398 61.1245 45.5956 60.6692 45.5885C60.4783 45.7179 60.3055 45.7204 59.9319 45.736C59.9319 45.7851 59.9319 45.8343 59.9319 45.8834C59.8828 45.8834 59.8336 45.8834 59.7845 45.8834C59.7845 47.1613 59.7845 48.4395 59.7845 49.7173Z" fill="#EEEEEE"/>
<path fill-rule="evenodd" clip-rule="evenodd" d="M56.5405 45.8834C56.2002 46.8502 56.2057 49.487 56.5405 50.4546C57.1803 50.3259 57.662 50.1815 58.4575 50.1597C58.9249 49.2687 58.7705 47.3839 58.7524 46.0309C58.7032 46.0309 58.6541 46.0309 58.6049 46.0309C58.6049 45.9817 58.6049 45.9325 58.6049 45.8834C57.9169 45.8834 57.2286 45.8834 56.5405 45.8834Z" fill="#EEEEEE"/>
<path fill-rule="evenodd" clip-rule="evenodd" d="M20.1187 46.1783C20.1187 47.7019 20.1187 49.2259 20.1187 50.7495C20.2661 50.7986 20.4136 50.8478 20.561 50.897C20.9312 51.1646 21.6394 51.2771 22.1831 51.3393C22.6053 50.0827 22.3427 47.8566 22.3306 46.3258C22.2322 46.3258 22.1339 46.3258 22.0356 46.3258C21.6704 46.0833 20.7231 46.1601 20.1187 46.1783Z" fill="#EEEEEE"/>
<path fill-rule="evenodd" clip-rule="evenodd" d="M51.9693 46.1783C51.2392 46.6438 49.147 46.4862 48.1354 46.4733C47.6837 47.3522 47.8405 49.1224 47.8405 50.4546C47.8405 53.4034 47.8405 56.3532 47.8405 59.302C48.0769 59.3842 48.1949 59.42 48.5778 59.4495C49.1845 58.9853 52.3282 58.2476 52.5591 57.8275C52.5591 53.994 52.5591 50.1593 52.5591 46.3258C52.5099 46.3258 52.4608 46.3258 52.4116 46.3258C52.4116 46.2766 52.4116 46.2275 52.4116 46.1783C52.2642 46.1783 52.1167 46.1783 51.9693 46.1783Z" fill="#EEEEEE"/>
<path fill-rule="evenodd" clip-rule="evenodd" d="M23.8051 46.4733C23.3572 47.8078 23.6455 50.1679 23.6577 51.7817C23.7068 51.7817 23.756 51.7817 23.8051 51.7817C23.8051 51.8309 23.8051 51.88 23.8051 51.9292C24.6406 52.1258 25.4764 52.3224 26.3119 52.519C26.7984 51.0672 26.4717 48.5066 26.4593 46.7681C26.3611 46.7681 26.2627 46.7681 26.1644 46.7681C25.6708 46.4438 24.5623 46.4637 23.8051 46.4733Z" fill="#EEEEEE"/>
<path fill-rule="evenodd" clip-rule="evenodd" d="M38.4033 47.2105C38.4033 50.7983 38.4033 54.3871 38.4033 57.9749C38.4033 59.558 38.1175 61.8277 38.5508 63.1359C40.181 62.7922 41.6688 61.9299 43.1219 61.3664C43.6216 61.1727 44.9516 61.0578 45.1863 60.6291C45.1863 56.0584 45.1863 51.4863 45.1863 46.9156C44.7253 46.7566 43.9457 46.7586 43.2694 46.7681C42.6079 47.1796 39.3566 47.107 38.4033 47.2105Z" fill="#EEEEEE"/>
<path fill-rule="evenodd" clip-rule="evenodd" d="M28.6712 46.9156C28.1462 48.4847 28.5114 51.2456 28.5237 53.1088C28.5729 53.1088 28.622 53.1088 28.6712 53.1088C28.6712 53.158 28.6712 53.2071 28.6712 53.2563C29.8711 53.421 30.685 54.0202 32.0627 54.141C32.0627 54.0427 32.0627 53.9444 32.0627 53.8461C32.5533 53.0719 32.2266 48.6558 32.2102 47.358C32.161 47.358 32.1119 47.358 32.0627 47.358C32.0627 47.3089 32.0627 47.2597 32.0627 47.2105C30.9323 47.1122 29.8016 47.0139 28.6712 46.9156Z" fill="#EEEEEE"/>
</svg>
